<svg xmlns="http://www.w3.org/2000/svg" width="1436" height="121.122" viewBox="0 0 1436 121.122">
  <path id="Path_80" data-name="Path 80" d="M594.336,107.173c-3.664,5.191-7.329,7.029-14.1,7.029-13.658,0-36.755-13.734-45.638-13.734-2.443,0-6.441,0-15.324,8l22.1-19.9c16.323,4.326,36.2,6.381,36.2,15.248,0,3.893-1.333,5.732-4.331,7.895,5.219-3.352,15.99-10.923,15.99-20.115,0-10.166-17.1-13.086-32.424-16.871l12.548-11.247c17.212,4.326,34.2,9.841,34.2,24.549,0,8-2.776,12.437-7.551,17.087,10.216-7.029,22.319-16.871,22.319-28.875,0-15.681-16.212-21.953-33.2-26.928l34.645-31.038c-3.553,3.136-5.774,4.109-10.549,4.109-9.439,0-30.87-9.625-40.308-9.625a13.248,13.248,0,0,0-5.552.865,22.7,22.7,0,0,0-5.219,3.244c-4.331,3.352-7.995,6.813-13.88,12.112-6.329,5.732-10.216,9.625-10.216,14.275,0,11.9,17.433,15.465,34.867,20.115L556.248,74.621c-11.992-2.812-22.653-6.056-22.653-13.41,0-3.136.555-4.975,3.331-8.327-9.883,6.7-16.434,11.031-16.434,19.142,0,8.868,9.217,13.3,20.321,16.438l-23.208,20.764-17.989,17.087.222-.108c10.993-9.841,14.1-12.653,18.988-12.653,7.218,0,30.315,14.491,45.971,14.491C577.346,128.044,587.118,121.123,594.336,107.173ZM547.143,31.039c0-2.6.111-3.677.888-5.3a15.414,15.414,0,0,1,5.441-.865c9.327,0,28.76,9.733,37.643,9.733,6.107,0,12.1-2.271,24.207-12.869L584.675,49.207C566.353,44.016,547.143,41.2,547.143,31.039ZM721.7,85c-3.22,14.275-15.213,26.6-32.424,26.6-27.65,0-40.975-13.843-40.975-39.905,0-19.358,4-29.956,13.1-39.148-16.545,14.6-29.648,29.2-29.648,53.748,0,23.792,15.1,41.095,43.307,41.095C702.047,127.4,717.815,103.171,721.7,85ZM700.714,37.635c9.328,0,12.881-3.461,28.316-20.439-3.109,3.028-5.33,5.083-12.881,5.083-13.1,0-45.971-8.76-59.852-8.76-6.107,0-12.992,3.893-31.425,22.71,6.44-5.732,9.55-7.462,14.88-7.462C655.742,28.768,686.834,37.635,700.714,37.635Zm-16.545-.973-11.659,10.49c-3.886,3.569-6.329,6.056-7.44,7.678l.222,49.53,19.432-17.087Zm87.168-1.73-11.659,10.49a87.282,87.282,0,0,0-6.774,6.272l.222,49.747,18.766-16.654ZM751.35,26.5c15.435,6.381,32.091,10.814,40.642,10.814,8.217,0,15.768-3.677,33.2-20.98-5.219,4.65-8.439,6.381-13.658,6.381-8.217,0-28.427-5.191-43.861-10.166C762.9,16.547,756.568,21.738,751.35,26.5ZM818.974,85c-3.553,15.032-15.213,26.6-34.423,26.6-29.315,0-44.861-15.248-44.861-45.529,0-11.247-.888-24.116,10.327-38.175-20.987,23.359-26.65,34.282-26.65,55.262,0,23.792,16.212,44.231,47.193,44.231C797.987,127.4,815.088,103.171,818.974,85ZM787.994,58.616c-5.219,4.65-10.549,9.841-15.768,14.924,9.994,4.867,15.657,6.164,21.1,6.164,5,0,10.993-4.326,27.316-20.439-4.553,4.326-6.552,5.624-9.106,5.624C807.2,64.888,800.763,64.131,787.994,58.616Zm70.068,70.078c15.879,0,26.095-11.463,26.095-26.279,0-22.6-16.212-27.469-16.212-54.829,0-5.624,1.111-11.355,4.664-15.573l-13.1,11.247c-4.109,3.785-5.774,5.732-6.774,8.219a25.218,25.218,0,0,0-1.555,10.057c.111,6.921,2.11,12.653,4.331,17.844-18.988-.324-28.094-13.194-28.094-26.171,0-15.032,10.438-25.63,25.54-25.63,16.323,0,34.09,11.355,47.97,11.355,7.106,0,15.1-4.109,37.976-25.847-9.55,8.111-13.547,10.382-18.766,10.382-13.658,0-37.088-12.112-53.411-12.112-24.429,0-40.975,17.519-40.975,36.445,0,18.6,10.216,31.686,29.759,31.686,3.553,8.435,8.217,15.357,8.217,23.792a13.054,13.054,0,0,1-13.325,13.3c-9.883,0-18.988-4.434-18.988-16.005,0-8.976,4.442-14.6,12.881-18.6C835.853,85.76,830.3,92.14,830.3,102.522,830.3,115.283,839.628,128.693,858.062,128.693Zm17.767-57.1c7.884,5.515,13.658,6.6,18.988,6.6,4.442,0,7.662-1.514,24.984-18.385-4.109,3.785-5.885,4.542-8.217,4.542-4.442,0-8.439-.649-19.988-7.895Zm145.132,27.9c0-10.382,1-66.725,1-77.648l10.549-10.49-.111-.108-14.991,14.383-9.439,8.976C996.642,20.44,983.984,12.438,965,12.438c-22.319,0-38.643,17.952-38.643,36.661,0,9.949,2.332,16.438,6.218,21.088a167.383,167.383,0,0,0-17.1,15.681c6.441-5.732,9.55-7.462,14.88-7.462,8.439,0,17.878,2.271,27.094,4.542l-29.537,28.226L911.14,126.53l.222-.108c12.326-11.139,14.324-12.328,19.544-12.328,10.549,0,28.649,12,40.752,12,5.663,0,9.105-2.6,29.315-22.819v8.111c0,4.218,1.333,6.6,4,9.517,3.886,4,7.329,5.083,9.216,5.083a4.7,4.7,0,0,0,3.442-1.19c3.886-2.92,12.77-11.571,15.546-13.951a8.121,8.121,0,0,1-4.442,1.514,7.682,7.682,0,0,1-6.774-3.893C1021.294,107.5,1020.961,104.469,1020.961,99.494ZM948.672,62.617c-3.886,0-8.439,1.73-15.99,7.462a31.914,31.914,0,0,1-5-16.979c0-12,6.774-24.657,24.54-24.657,16.545,0,28.76,5.624,40.641,20.656L973.1,68.024C963.441,65.212,953.891,62.617,948.672,62.617Zm33.646,24.765c3,0,7.107-1.73,19.21-12.977l-.556,28.55c-9.216,8.652-10.771,9.517-14.1,9.517-10.327,0-27.65-11.788-39.642-11.788-6,0-10.1,3.353-21.986,13.518L958,83.056C966.994,85.219,975.544,87.382,982.318,87.382Zm17.434-13.41c-5.663,0-15.99-2.92-26.206-5.84l28.538-27.144c0,5.948-.222,19.142-.555,32.66A5.151,5.151,0,0,1,999.751,73.972Zm123.923-35.255c0-15.9-9.105-25.306-21.542-25.306-10.1,0-18.322,8.543-36.089,24.981-2.221-7.246-4.109-13.843-4.109-19.358,0-3.785.777-6.6,3.331-8.868-13.88,10.057-20.432,16.005-20.432,26.063,0,15.248,13.1,35.363,13.1,54.938,0,5.191-3.109,9.625-6.773,12.328,15.546-10.6,23.319-20.872,23.319-30.929,0-10.382-4.886-22.819-8.439-34.174,8.328-7.029,12.77-10.274,19.1-10.274,11.992,0,18.322,7.138,18.322,19.79l-1.11,63.481a12.287,12.287,0,0,0,3.664,9.517c3.886,4,7,5.083,8.883,5.083a4.7,4.7,0,0,0,3.442-1.19c3.887-2.92,13.769-12.329,16.434-14.708a8.121,8.121,0,0,1-4.442,1.514,7.682,7.682,0,0,1-6.774-3.893c-.666-.973-1-4-1-8.976.111-9.949.333-19.033.555-27.252C1123.453,57.318,1123.675,42.61,1123.675,38.717Zm-57.631,86.408c9.883,0,14.657-6.272,28.094-21.088-4.552,3.569-5.774,4.975-12.1,4.975-9.772,0-15.99-5.624-24.651-5.624-7.773,0-13.436,5.624-29.759,23.035,6.44-5.732,8.661-7.462,13.769-7.462C1049.166,118.96,1057.716,125.125,1066.044,125.125Zm153.349-81.866c-4,3.893-5.441,5.3-6.662,7.354-.555,6.056-.444,19.142-.111,30.821-19.21.324-27.65-11.9-27.65-24.765,0-14.924,12.992-29.524,35.311-29.524s37.31,8.652,43.862,27.577l15.99-14.059c-7.44-16.979-25.873-29.74-50.3-29.74-28.316,0-46.527,21.3-46.527,40.338,0,18.709,9.439,30.821,29.315,30.281.111,6.056.222,11.463.111,15.681l19.543-18.817c-.555-16.979-.555-41.2-.555-47.151Zm21.653,29.415c14.769,3.461,26.539,14.924,26.539,28.442a46.144,46.144,0,0,1-.888,8.543,10.4,10.4,0,0,1-4.664,1.19c-13.769,0-41.086-11.68-51.968-11.68-5.885,0-15.657,8.868-32.98,26.063,6.774-6.6,11.882-10.706,16.767-10.706,14.991,0,34.312,10.6,48.859,10.6,4.109,0,6.329-.973,9.994-3.893,3.553-2.6,9.328-7.354,13.325-10.706,4.442-3.785,9.216-7.138,12.77-10.166,3.553-3.136,4.886-6.813,4.886-12.869,0-12.977-12.659-24.873-27.76-28.009ZM1388.4,99.494c0-10.382,1-66.725,1-77.648l10.549-10.49-.111-.108-14.99,14.383-9.439,8.976c-11.326-14.167-23.985-22.17-42.973-22.17-22.32,0-38.643,17.952-38.643,36.661,0,9.949,2.332,16.438,6.219,21.088a167.344,167.344,0,0,0-17.1,15.681c6.441-5.732,9.549-7.462,14.88-7.462,8.439,0,17.878,2.271,27.094,4.542l-29.537,28.226-16.768,15.357.222-.108c12.326-11.139,14.324-12.328,19.544-12.328,10.549,0,28.649,12,40.752,12,5.663,0,9.105-2.6,29.315-22.819v8.111c0,4.218,1.332,6.6,4,9.517,3.887,4,7.329,5.083,9.217,5.083a4.7,4.7,0,0,0,3.442-1.19c3.886-2.92,12.77-11.571,15.546-13.951a8.121,8.121,0,0,1-4.442,1.514,7.682,7.682,0,0,1-6.774-3.893C1388.733,107.5,1388.4,104.469,1388.4,99.494Zm-72.288-36.877c-3.887,0-8.439,1.73-15.99,7.462a31.913,31.913,0,0,1-5-16.979c0-12,6.774-24.657,24.54-24.657,16.545,0,28.76,5.624,40.641,20.656l-19.766,18.925C1330.88,65.212,1321.33,62.617,1316.111,62.617Zm33.645,24.765c3,0,7.107-1.73,19.21-12.977l-.555,28.55c-9.217,8.652-10.771,9.517-14.1,9.517-10.327,0-27.649-11.788-39.642-11.788-6,0-10.1,3.353-21.986,13.518l32.757-31.146C1334.433,85.219,1342.984,87.382,1349.757,87.382Zm17.434-13.41c-5.663,0-15.99-2.92-26.206-5.84l28.538-27.144c0,5.948-.222,19.142-.555,32.66A5.148,5.148,0,0,1,1367.191,73.972Zm85.391,11.247,6-.216c22.431-.541,20.1,43.042,42.862,43.042,12.992,0,25.539-14.059,26.095-25.306-1.221,8.76-5.108,11.355-11.437,11.355-16.323,0-20.21-27.793-32.092-38.5,14.547-8.219,22.875-18.6,22.875-28.55,0-17.628-16.212-35.255-49.3-35.255-31.2,0-51.3,20.547-51.3,39.473,0,17.628,8.439,28.334,25.873,29.091l-.222,22.6,19.433-17.087.111-51.044-11.66,10.49a46.03,46.03,0,0,0-7.44,7.678l-.222,27.252c-16.878-.865-24.207-11.463-24.207-23.576,0-15.573,13.991-28.875,37.532-28.875,28.871,0,43.75,12.328,43.75,31.362,0,6.489-1.443,12.545-5.33,16.33-3-2.487-6.441-4.218-10.771-3.893l-5,.216Zm-5.774,43.15c6.662,0,10.882-3.461,28.982-21.737-6.773,6.381-8.328,7.786-10.993,7.786-11.1,0-24.1-11.139-35.089-11.139-6.107,0-13.658,3.028-32.091,21.845,6.441-5.732,9.549-7.462,14.88-7.462C1429.263,117.663,1433.039,128.369,1446.808,128.369Zm114.263-77.648c-4.886,4.326-5.774,6.381-5.774,7.354l.223,43.258L1575.839,82.3l-.555-44.339Zm-10.327-23.143c14.214,5.84,32.757,11.68,41.308,11.68,6.108,0,15.657-3.785,34.423-22.062-6.44,5.732-9.55,7.462-14.88,7.462-7.884,0-29.2-6.921-44.528-11.788Zm68.513,56.343c-3.22,13.843-16.545,27.685-33.535,27.685-30.981,0-46.194-16.005-46.194-45.1,0-11.463-1.11-23.684,10.1-37.743-20.987,23.359-26.65,34.282-26.65,55.262,0,21.953,14.324,43.366,48.526,43.366C1597.271,127.4,1615.26,101.873,1619.257,83.921Zm50.3-48.99L1657.9,45.422a87.26,87.26,0,0,0-6.773,6.272l.222,49.747,18.767-16.654ZM1649.572,26.5c15.435,6.381,32.091,10.814,40.642,10.814,8.217,0,15.768-3.677,33.2-20.98-5.219,4.65-8.439,6.381-13.658,6.381-8.217,0-28.427-5.191-43.862-10.166C1661.12,16.547,1654.791,21.738,1649.572,26.5ZM1717.2,85c-3.553,15.032-15.213,26.6-34.423,26.6-29.315,0-44.861-15.248-44.861-45.529,0-11.247-.888-24.116,10.327-38.175-20.987,23.359-26.65,34.282-26.65,55.262,0,23.792,16.212,44.231,47.193,44.231C1696.209,127.4,1713.31,103.171,1717.2,85Zm-30.981-26.387c-5.219,4.65-10.549,9.841-15.768,14.924,9.994,4.867,15.657,6.164,21.1,6.164,5,0,10.993-4.326,27.317-20.439-4.553,4.326-6.552,5.624-9.105,5.624C1705.426,64.888,1698.985,64.131,1686.215,58.616Zm43.862,14.275c10.1,17.844,7.884,24.657.111,30.5,19.544-12.653,30.2-21.3,18.989-40.771-9.55-16.546-11.437-24.333-5.219-33.633C1725.969,44.989,1719.75,55.263,1730.077,72.891ZM1774.05,11.14c-12.326,0-21.653,9.409-29.426,17.3,3.887-3.352,8.217-3.569,12.992-3.569,12.77,0,21.1,7.678,21.1,19.358,0,8.327-2.554,12.977-14.435,21.088,20.321-12.653,30.092-24.008,30.092-35.688C1794.371,18.71,1786.265,11.14,1774.05,11.14Zm-7.218,120.149c8.883,0,16.989-4.326,26.65-18.925-2.221,2.055-5.219,3.352-9.55,3.352-14.213,0-30.2-13.194-47.415-13.194-6,0-13.88,3.136-33.424,25.414,9.217-9.3,11.882-10.49,18.544-10.49C1738.516,117.446,1749.621,131.289,1766.832,131.289Zm27.316-19.466c11.215-9.517,18.211-17.411,18.211-25.738,0-6.489-2.887-10.49-7-16.222L1786.6,86.3c5.664,5.948,9.106,12.22,9.106,18.709A14.732,14.732,0,0,1,1794.149,111.823Zm48.081-45.853c0-16.871,5.664-29.415,16.212-40.338-17.988,16.654-32.424,32.876-32.424,57.425,0,23.035,12.881,44.339,46.971,44.339,18.877,0,32.091-16.438,37.089-23.684,16.434-12.22,25.54-26.279,25.54-47.151,0-22.927-13.658-41.528-42.2-43.258l-16.1,15.032c28.982.757,41.863,16.654,41.863,45.962a49.387,49.387,0,0,1-8.884,29.091c-4.442,4.218-11.66,8.219-22.764,8.219C1856.554,111.606,1842.23,96.142,1842.23,65.969ZM1876.1,29.416l-11.66,10.49A46.008,46.008,0,0,0,1857,47.585l.222,51.693,19.432-17.087Zm21.1,35.471L1880.1,81.11l14.99,12.437,16.99-15.789Z" transform="translate(-499.617 -10.167)" fill="#d9dee0"/>
</svg>
